<svg width="36" height="16" viewBox="0 0 36 16" fill="none" xmlns="http://www.w3.org/2000/svg">
<path fill-rule="evenodd" clip-rule="evenodd" d="M4.92288 3.02723C5.59436 3.08505 6.26585 2.68029 6.68553 2.1671C7.09822 1.63946 7.37101 0.931126 7.30106 0.208332C6.70652 0.237244 5.97208 0.613097 5.5524 1.14074C5.16769 1.5961 4.83894 2.33335 4.92288 3.02723ZM12.9108 12.3368V1.06845H17.0027C19.115 1.06845 20.5909 2.57186 20.5909 4.76916C20.5909 6.96645 19.0871 8.48432 16.9467 8.48432H14.6035V12.3368H12.9108ZM7.29401 3.16455C6.70244 3.12937 6.16266 3.3484 5.72667 3.52531C5.44609 3.63915 5.2085 3.73556 5.02774 3.73556C4.82489 3.73556 4.57749 3.634 4.29971 3.51997C3.93573 3.37055 3.51961 3.19972 3.08323 3.20792C2.08299 3.22238 1.1527 3.80784 0.642091 4.74024C-0.407108 6.60505 0.369299 9.36612 1.38352 10.884C1.88015 11.6357 2.47469 12.4597 3.25809 12.4308C3.60274 12.4173 3.85066 12.3086 4.10724 12.1961C4.40262 12.0666 4.70948 11.932 5.18862 11.932C5.65114 11.932 5.94458 12.0631 6.22626 12.1889C6.4941 12.3085 6.7513 12.4234 7.13313 12.4163C7.94451 12.4019 8.45512 11.6646 8.95174 10.9129C9.48768 10.1061 9.72319 9.31874 9.75893 9.19925L9.76312 9.18542C9.76227 9.18454 9.75565 9.18141 9.74396 9.17588C9.56481 9.09113 8.19546 8.44334 8.18233 6.70624C8.16915 5.24821 9.26846 4.50947 9.44151 4.39319C9.45204 4.38611 9.45914 4.38134 9.46235 4.37885C8.76289 3.30911 7.67172 3.19347 7.29401 3.16455ZM23.6826 12.4235C24.7458 12.4235 25.7321 11.867 26.1797 10.9852H26.2147V12.3368H27.7815V6.72793C27.7815 5.10164 26.5225 4.05359 24.5849 4.05359C22.7873 4.05359 21.4583 5.1161 21.4094 6.57614H22.9342C23.0601 5.88226 23.6826 5.4269 24.536 5.4269C25.5712 5.4269 26.1517 5.92563 26.1517 6.84358V7.46518L24.0394 7.59528C22.0739 7.71816 21.0107 8.54937 21.0107 9.99496C21.0107 11.455 22.1088 12.4235 23.6826 12.4235ZM24.1372 11.0864C23.2349 11.0864 22.6613 10.6382 22.6613 9.95159C22.6613 9.24326 23.2139 8.83127 24.2701 8.76621L26.1516 8.64334V9.2794C26.1516 10.3347 25.2843 11.0864 24.1372 11.0864ZM32.9785 12.7777C32.3 14.7509 31.5236 15.4015 29.8728 15.4015C29.7469 15.4015 29.3272 15.387 29.2293 15.3581V14.0065C29.3342 14.0209 29.593 14.0354 29.7259 14.0354C30.4744 14.0354 30.8941 13.7101 31.1529 12.8645L31.3067 12.3657L28.4389 4.16202H30.2086L32.2021 10.8189H32.237L34.2305 4.16202H35.9512L32.9785 12.7777ZM14.6033 2.54295H16.5548C18.0237 2.54295 18.8631 3.35248 18.8631 4.77638C18.8631 6.20029 18.0237 7.01704 16.5479 7.01704H14.6033V2.54295Z" fill="black"/>
</svg>
