<svg width="36" height="16" viewBox="0 0 36 16" fill="none" xmlns="http://www.w3.org/2000/svg">
<path fill-rule="evenodd" clip-rule="evenodd" d="M16.6138 11.9805V7.57494H18.8412C19.7539 7.57494 20.5243 7.26274 21.1523 6.647L21.303 6.4909C22.4502 5.21606 22.3749 3.23009 21.1523 2.05065C20.541 1.42624 19.7037 1.08802 18.8412 1.10536H15.2656V11.9805H16.6138ZM16.6139 6.23938V2.44089H18.8752C19.3609 2.44089 19.8216 2.63168 20.1649 2.97857C20.8936 3.70705 20.9103 4.92118 20.2068 5.67568C19.8634 6.04859 19.3777 6.25673 18.8752 6.23938H16.6139ZM27.5917 5.12068C27.0139 4.57432 26.2268 4.2968 25.2303 4.2968C23.9491 4.2968 22.9862 4.78245 22.3498 5.74509L23.5388 6.51693C23.9743 5.85783 24.5688 5.52828 25.3224 5.52828C25.7997 5.52828 26.2603 5.7104 26.6203 6.03995C26.972 6.35215 27.173 6.80311 27.173 7.28009V7.60097C26.6538 7.30611 26.0007 7.15001 25.1968 7.15001C24.259 7.15001 23.5053 7.37549 22.9443 7.83512C22.3833 8.29476 22.0986 8.90182 22.0986 9.67366C22.0818 10.3761 22.3749 11.0439 22.8941 11.4949C23.4216 11.9805 24.0915 12.2233 24.8786 12.2233C25.8081 12.2233 26.545 11.7984 27.106 10.9485H27.1646V11.9805H28.4542V7.39283C28.4542 6.4302 28.1695 5.66703 27.5917 5.12068ZM23.9326 10.6103C23.6562 10.4021 23.4887 10.0639 23.4887 9.69967C23.4887 9.29207 23.673 8.95385 24.0331 8.68501C24.4016 8.41616 24.8622 8.27741 25.4066 8.27741C26.1604 8.26873 26.7466 8.44218 27.1654 8.78908C27.1654 9.3788 26.9392 9.89047 26.4954 10.3241C26.0934 10.7404 25.549 10.9745 24.9795 10.9745C24.6026 10.9832 24.2341 10.8531 23.9326 10.6103ZM31.3515 15.25L35.8565 4.53963H34.3911L32.3061 9.8818H32.2809L30.1457 4.53963H28.6803L31.6362 11.5035L29.9614 15.25H31.3515Z" fill="#3C4043"/>
<path d="M11.96 6.62098C11.96 6.19604 11.9265 5.77109 11.8595 5.35482H6.17383V7.75706H9.43118C9.2972 8.5289 8.86177 9.22269 8.22537 9.65631V11.2173H10.1681C11.3069 10.1333 11.96 8.5289 11.96 6.62098Z" fill="#4285F4"/>
<path d="M6.17332 12.7263C7.79781 12.7263 9.17109 12.1713 10.1676 11.2173L8.22487 9.65631C7.68058 10.0379 6.98557 10.2547 6.17332 10.2547C4.59907 10.2547 3.26766 9.15331 2.79037 7.67901H0.789062V9.29207C1.81065 11.3995 3.89569 12.7263 6.17332 12.7263Z" fill="#34A853"/>
<path d="M2.79117 7.67903C2.53992 6.90719 2.53992 6.06597 2.79117 5.28546V3.68107H0.789546C-0.0730778 5.44156 -0.0730778 7.52293 0.789546 9.28341L2.79117 7.67903Z" fill="#FBBC04"/>
<path d="M6.17332 2.70975C7.03581 2.69241 7.8648 3.03063 8.48445 3.64637L10.2094 1.85986C9.11247 0.801832 7.67221 0.220784 6.17332 0.238128C3.89569 0.238128 1.81065 1.57367 0.789062 3.68105L2.79037 5.29411C3.26766 3.81114 4.59907 2.70975 6.17332 2.70975Z" fill="#EA4335"/>
</svg>
