<svg width="33" height="21" viewBox="0 0 33 21" fill="none" xmlns="http://www.w3.org/2000/svg">
<path d="M19.7074 10.6851C19.7074 16.2449 15.343 20.752 9.95918 20.752C4.57538 20.752 0.210938 16.2449 0.210938 10.6851C0.210938 5.12537 4.57538 0.618286 9.95918 0.618286C15.343 0.618286 19.7074 5.12537 19.7074 10.6851Z" fill="#ED0006"/>
<path d="M32.3539 10.6851C32.3539 16.2449 27.9895 20.752 22.6057 20.752C17.2219 20.752 12.8574 16.2449 12.8574 10.6851C12.8574 5.12537 17.2219 0.618286 22.6057 0.618286C27.9895 0.618286 32.3539 5.12537 32.3539 10.6851Z" fill="#0099DF"/>
<path fill-rule="evenodd" clip-rule="evenodd" d="M16.2824 18.3471C18.3784 16.5007 19.7075 13.7532 19.7075 10.6852C19.7075 7.6171 18.3784 4.86962 16.2824 3.02317C14.1865 4.86962 12.8574 7.6171 12.8574 10.6852C12.8574 13.7532 14.1865 16.5007 16.2824 18.3471Z" fill="#6C6BBD"/>
</svg>
