<svg width="33" height="21" viewBox="0 0 33 21" fill="none" xmlns="http://www.w3.org/2000/svg">
<path fill-rule="evenodd" clip-rule="evenodd" d="M16.3566 18.0205C14.6543 19.5201 12.4462 20.4254 10.0334 20.4254C4.64959 20.4254 0.285156 15.9183 0.285156 10.3585C0.285156 4.79875 4.64959 0.291668 10.0334 0.291668C12.4462 0.291668 14.6543 1.19693 16.3566 2.6965C18.0588 1.19693 20.2669 0.291668 22.6798 0.291668C28.0636 0.291668 32.428 4.79875 32.428 10.3585C32.428 15.9183 28.0636 20.4254 22.6798 20.4254C20.2669 20.4254 18.0588 19.5201 16.3566 18.0205Z" fill="#ED0006"/>
<path fill-rule="evenodd" clip-rule="evenodd" d="M16.3574 18.0205C18.4534 16.1741 19.7825 13.4266 19.7825 10.3585C19.7825 7.29045 18.4534 4.54295 16.3574 2.6965C18.0597 1.19693 20.2678 0.291668 22.6806 0.291668C28.0644 0.291668 32.4288 4.79875 32.4288 10.3585C32.4288 15.9183 28.0644 20.4254 22.6806 20.4254C20.2678 20.4254 18.0597 19.5201 16.3574 18.0205Z" fill="#F9A000"/>
<path fill-rule="evenodd" clip-rule="evenodd" d="M16.3567 2.69655C18.4526 4.543 19.7817 7.29049 19.7817 10.3585C19.7817 13.4266 18.4526 16.1741 16.3567 18.0205C14.2607 16.1741 12.9316 13.4266 12.9316 10.3585C12.9316 7.29049 14.2607 4.543 16.3567 2.69655Z" fill="#FF5E00"/>
</svg>
