<svg width="30" height="26" viewBox="0 0 30 26" fill="none" xmlns="http://www.w3.org/2000/svg">
<path fill-rule="evenodd" clip-rule="evenodd" d="M4.14342 17.7728H1.92112C1.76904 17.7728 1.6397 17.8833 1.61599 18.0334L0.717175 23.732C0.69931 23.8445 0.786394 23.9459 0.900454 23.9459H1.9614C2.11348 23.9459 2.24282 23.8353 2.26653 23.685L2.50895 22.148C2.53234 21.9974 2.66199 21.8871 2.81375 21.8871H3.51726C4.98117 21.8871 5.82598 21.1786 6.04674 19.7749C6.14614 19.1607 6.05095 18.6782 5.76328 18.3401C5.44749 17.9692 4.88719 17.7728 4.14342 17.7728ZM4.39982 19.8541C4.27831 20.6516 3.66902 20.6516 3.07989 20.6516H2.74453L2.9798 19.1622C2.99377 19.0723 3.07175 19.006 3.16274 19.006H3.31644C3.71775 19.006 4.09636 19.006 4.292 19.2347C4.40854 19.3713 4.44433 19.574 4.39982 19.8541ZM10.7864 19.8286H9.72223C9.63156 19.8286 9.55321 19.8949 9.53923 19.985L9.49216 20.2826L9.41772 20.1747C9.18735 19.8403 8.67366 19.7286 8.16088 19.7286C6.98478 19.7286 5.98042 20.6192 5.78478 21.8687C5.68313 22.4919 5.82764 23.0878 6.18117 23.5035C6.50554 23.8856 6.9696 24.0448 7.52163 24.0448C8.46915 24.0448 8.99471 23.4355 8.99471 23.4355L8.9472 23.7313C8.9293 23.8444 9.01637 23.9457 9.12975 23.9457H10.0884C10.2409 23.9457 10.3695 23.8352 10.3935 23.6848L10.9687 20.0424C10.9869 19.9304 10.9001 19.8286 10.7864 19.8286ZM9.30299 21.8998C9.20028 22.5078 8.71772 22.9159 8.10238 22.9159C7.79336 22.9159 7.54629 22.8168 7.38779 22.629C7.2305 22.4426 7.17065 22.177 7.22072 21.8814C7.31666 21.2785 7.80734 20.8571 8.41336 20.8571C8.71547 20.8571 8.96118 20.9574 9.12299 21.1469C9.28509 21.3383 9.34945 21.6054 9.30299 21.8998ZM15.3848 19.8284H16.4543C16.6041 19.8284 16.6914 19.9964 16.6063 20.1192L13.0495 25.2534C12.9919 25.3365 12.897 25.386 12.7956 25.386H11.7275C11.5771 25.386 11.4893 25.2167 11.5764 25.0935L12.6839 23.5302L11.506 20.0734C11.4652 19.9532 11.554 19.8284 11.6818 19.8284H12.7326C12.8692 19.8284 12.9896 19.918 13.029 20.0487L13.6541 22.1365L15.1292 19.9639C15.1869 19.8791 15.2829 19.8284 15.3848 19.8284Z" fill="#253B80"/>
<path fill-rule="evenodd" clip-rule="evenodd" d="M26.9799 23.732L27.8919 17.9291C27.9059 17.839 27.984 17.7727 28.0746 17.7724H29.1014C29.2148 17.7724 29.3019 17.8741 29.284 17.9866L28.3846 23.6849C28.3611 23.8353 28.2318 23.9458 28.0795 23.9458H27.1625C27.0491 23.9458 26.962 23.8445 26.9799 23.732ZM19.9951 17.7727H17.7724C17.6206 17.7727 17.4913 17.8833 17.4675 18.0333L16.5687 23.732C16.5509 23.8445 16.6379 23.9458 16.7515 23.9458H17.8919C17.9979 23.9458 18.0886 23.8685 18.1051 23.7633L18.3602 22.1479C18.3836 21.9974 18.5133 21.887 18.665 21.887H19.3681C20.8324 21.887 21.677 21.1786 21.8979 19.7748C21.9976 19.1607 21.9018 18.6781 21.6143 18.3401C21.2987 17.9691 20.7388 17.7727 19.9951 17.7727ZM20.2515 19.8541C20.1303 20.6515 19.5209 20.6515 18.9315 20.6515H18.5964L18.8321 19.1622C18.846 19.0723 18.9233 19.006 19.0146 19.006H19.1683C19.5694 19.006 19.9483 19.006 20.1438 19.2347C20.2605 19.3712 20.296 19.5739 20.2515 19.8541ZM26.6375 19.8285H25.574C25.4826 19.8285 25.405 19.8948 25.3913 19.9849L25.3443 20.2825L25.2695 20.1747C25.0391 19.8403 24.5258 19.7285 24.013 19.7285C22.8369 19.7285 21.8328 20.6192 21.6372 21.8687C21.5358 22.4918 21.6797 23.0878 22.0333 23.5034C22.3582 23.8855 22.8217 24.0448 23.3737 24.0448C24.3212 24.0448 24.8467 23.4355 24.8467 23.4355L24.7993 23.7312C24.7814 23.8443 24.8685 23.9457 24.9826 23.9457H25.9408C26.0925 23.9457 26.2219 23.8352 26.2456 23.6848L26.8211 20.0424C26.8387 19.9303 26.7516 19.8285 26.6375 19.8285ZM25.1542 21.8998C25.0521 22.5078 24.5689 22.9159 23.9534 22.9159C23.645 22.9159 23.3975 22.8168 23.2388 22.629C23.0815 22.4425 23.0224 22.177 23.0719 21.8813C23.1683 21.2785 23.6584 20.8571 24.2644 20.8571C24.5667 20.8571 24.8122 20.9574 24.9742 21.1469C25.1369 21.3383 25.2012 21.6054 25.1542 21.8998Z" fill="#179BD7"/>
<path d="M12.3683 15.7341L12.6415 13.9988L12.033 13.9846H9.12695L11.1465 1.17914C11.1527 1.14048 11.1731 1.10444 11.2029 1.07884C11.2327 1.05325 11.2709 1.03914 11.3106 1.03914H16.2106C17.8373 1.03914 18.9599 1.37765 19.5461 2.04579C19.8208 2.35924 19.9958 2.68677 20.0805 3.04722C20.1692 3.42545 20.1709 3.87731 20.0841 4.42844L20.0778 4.46867V4.8218L20.3527 4.97748C20.5841 5.10023 20.7679 5.24076 20.9089 5.40166C21.1441 5.66965 21.2962 6.01025 21.3604 6.41406C21.4267 6.82937 21.4047 7.32355 21.2962 7.88304C21.1707 8.52663 20.968 9.08716 20.6943 9.54582C20.4425 9.96844 20.1217 10.3189 19.741 10.5906C19.3774 10.8487 18.9453 11.0446 18.4569 11.17C17.9835 11.2932 17.444 11.3554 16.8521 11.3554H16.4707C16.1981 11.3554 15.9331 11.4536 15.7253 11.6297C15.5169 11.8094 15.3788 12.0548 15.3366 12.3234L15.3079 12.4796L14.8252 15.5382L14.8032 15.6505C14.7975 15.6861 14.7876 15.7039 14.773 15.7159C14.7599 15.7267 14.7411 15.7341 14.7228 15.7341H12.3683Z" fill="#253B80"/>
<path d="M20.6121 4.50958C20.5975 4.60309 20.5808 4.69868 20.562 4.79689C19.9157 8.11463 17.705 9.26077 14.8814 9.26077H13.4438C13.0985 9.26077 12.8076 9.5115 12.7537 9.85211L12.0176 14.5203L11.8092 15.8434C11.7742 16.0671 11.9467 16.2687 12.1722 16.2687H14.7222C15.0241 16.2687 15.2805 16.0493 15.328 15.7516L15.3531 15.6219L15.8333 12.5753L15.8641 12.4082C15.911 12.1094 16.168 11.89 16.47 11.89H16.8513C19.3217 11.89 21.2557 10.887 21.821 7.98455C22.0571 6.77207 21.9348 5.75968 21.31 5.04764C21.121 4.83294 20.8864 4.6548 20.6121 4.50958Z" fill="#179BD7"/>
<path d="M19.9363 4.24025C19.8377 4.21151 19.7357 4.18539 19.6312 4.16189C19.5263 4.13891 19.4186 4.11853 19.3079 4.10077C18.9202 4.03808 18.4956 4.00831 18.0405 4.00831H14.1999C14.1053 4.00831 14.0156 4.02972 13.9351 4.06838C13.758 4.15353 13.6264 4.32123 13.5945 4.52652L12.7774 9.70138L12.7539 9.85234C12.8077 9.51173 13.0987 9.26098 13.444 9.26098H14.8816C17.7052 9.26098 19.916 8.11433 20.5622 4.79712C20.5814 4.69891 20.5977 4.60332 20.6123 4.50981C20.4488 4.42309 20.2717 4.34891 20.081 4.28569C20.0341 4.27002 19.9855 4.25488 19.9363 4.24025Z" fill="#222D65"/>
<path d="M13.5945 4.52641C13.6264 4.3211 13.7581 4.15341 13.9351 4.06878C14.0162 4.03012 14.1055 4.0087 14.1999 4.0087H18.0407C18.4957 4.0087 18.9204 4.03848 19.3079 4.10117C19.4187 4.11893 19.5264 4.13931 19.6314 4.16228C19.7359 4.1858 19.8377 4.21192 19.9365 4.24065C19.9855 4.25528 20.0341 4.27042 20.0816 4.28558C20.2723 4.34878 20.4494 4.42349 20.6129 4.50968C20.8052 3.28362 20.6114 2.44884 19.9485 1.69292C19.2177 0.860757 17.8986 0.504486 16.2107 0.504486H11.3106C10.9658 0.504486 10.6718 0.755223 10.6184 1.09635L8.5775 14.0335C8.5372 14.2894 8.73465 14.5204 8.99269 14.5204H12.018L12.7775 9.70124L13.5945 4.52641Z" fill="#253B80"/>
</svg>
