<svg width="36" height="12" viewBox="0 0 36 12" fill="none" xmlns="http://www.w3.org/2000/svg">
<path fill-rule="evenodd" clip-rule="evenodd" d="M9.1781 11.7099H6.14907L3.87767 2.86388C3.76986 2.45696 3.54095 2.09722 3.20422 1.92767C2.36389 1.50158 1.4379 1.16248 0.427734 0.99146V0.650887H5.30727C5.98071 0.650887 6.4858 1.16248 6.56998 1.75664L7.74851 8.1376L10.7761 0.650887H13.7209L9.1781 11.7099ZM15.4045 11.7099H12.5439L14.8994 0.650887H17.7601L15.4045 11.7099ZM21.4611 3.71458C21.5453 3.11895 22.0504 2.77837 22.6396 2.77837C23.5656 2.69286 24.5743 2.86388 25.4161 3.2885L25.9212 0.90743C25.0794 0.566856 24.1534 0.395832 23.3131 0.395832C20.5366 0.395832 18.5163 1.92768 18.5163 4.05368C18.5163 5.67104 19.9473 6.52026 20.9575 7.03186C22.0504 7.54198 22.4713 7.88255 22.3871 8.39268C22.3871 9.15786 21.5453 9.49843 20.705 9.49843C19.6948 9.49843 18.6846 9.24337 17.7601 8.81729L17.255 11.1998C18.2652 11.6244 19.3581 11.7955 20.3682 11.7955C23.4814 11.8795 25.4161 10.3491 25.4161 8.0521C25.4161 5.15944 21.4611 4.98989 21.4611 3.71458ZM35.4277 11.7099L33.1563 0.650887H30.7166C30.2115 0.650887 29.7064 0.99146 29.538 1.50158L25.332 11.7099H28.2768L28.8646 10.0941H32.4829L32.8196 11.7099H35.4277ZM31.1375 3.62907L31.9778 7.79705H29.6222L31.1375 3.62907Z" fill="#172B85"/>
</svg>
