<svg width="125" height="25" viewBox="0 0 125 25" fill="none" xmlns="http://www.w3.org/2000/svg">
<path d="M22.1704 8.62061L15.9716 7.71974L13.2006 2.10206C13.125 1.94825 13.0005 1.82374 12.8466 1.74806C12.4609 1.55763 11.9921 1.71632 11.7993 2.10206L9.02828 7.71974L2.82955 8.62061C2.65865 8.64503 2.5024 8.72559 2.38277 8.84766C2.23815 8.99631 2.15845 9.1963 2.1612 9.40368C2.16395 9.61105 2.24891 9.80886 2.39742 9.95362L6.88229 14.3262L5.82272 20.5005C5.79787 20.6441 5.81376 20.7918 5.86859 20.9269C5.92343 21.0619 6.015 21.1789 6.13294 21.2646C6.25088 21.3503 6.39046 21.4011 6.53585 21.4115C6.68124 21.4219 6.82663 21.3913 6.95553 21.3232L12.5 18.4082L18.0444 21.3232C18.1958 21.4038 18.3715 21.4307 18.54 21.4014C18.9648 21.3281 19.2505 20.9253 19.1772 20.5005L18.1176 14.3262L22.6025 9.95362C22.7246 9.83399 22.8051 9.67774 22.8296 9.50684C22.8955 9.0796 22.5976 8.68409 22.1704 8.62061Z" fill="#ECC86A"/>
<path d="M47.1704 8.62061L40.9716 7.71974L38.2006 2.10206C38.125 1.94825 38.0005 1.82374 37.8466 1.74806C37.4609 1.55763 36.9921 1.71632 36.7993 2.10206L34.0283 7.71974L27.8296 8.62061C27.6587 8.64503 27.5024 8.72559 27.3828 8.84766C27.2381 8.99631 27.1585 9.1963 27.1612 9.40368C27.1639 9.61105 27.2489 9.80886 27.3974 9.95362L31.8823 14.3262L30.8227 20.5005C30.7979 20.6441 30.8138 20.7918 30.8686 20.9269C30.9234 21.0619 31.015 21.1789 31.1329 21.2646C31.2509 21.3503 31.3905 21.4011 31.5358 21.4115C31.6812 21.4219 31.8266 21.3913 31.9555 21.3232L37.5 18.4082L43.0444 21.3232C43.1958 21.4038 43.3715 21.4307 43.54 21.4014C43.9648 21.3281 44.2505 20.9253 44.1772 20.5005L43.1176 14.3262L47.6025 9.95362C47.7246 9.83399 47.8051 9.67774 47.8296 9.50684C47.8955 9.0796 47.5976 8.68409 47.1704 8.62061Z" fill="#ECC86A"/>
<path d="M72.1704 8.62061L65.9716 7.71974L63.2006 2.10206C63.125 1.94825 63.0005 1.82374 62.8466 1.74806C62.4609 1.55763 61.9921 1.71632 61.7993 2.10206L59.0283 7.71974L52.8296 8.62061C52.6587 8.64503 52.5024 8.72559 52.3828 8.84766C52.2381 8.99631 52.1585 9.1963 52.1612 9.40368C52.1639 9.61105 52.2489 9.80886 52.3974 9.95362L56.8823 14.3262L55.8227 20.5005C55.7979 20.6441 55.8138 20.7918 55.8686 20.9269C55.9234 21.0619 56.015 21.1789 56.1329 21.2646C56.2509 21.3503 56.3905 21.4011 56.5358 21.4115C56.6812 21.4219 56.8266 21.3913 56.9555 21.3232L62.5 18.4082L68.0444 21.3232C68.1958 21.4038 68.3715 21.4307 68.54 21.4014C68.9648 21.3281 69.2505 20.9253 69.1772 20.5005L68.1176 14.3262L72.6025 9.95362C72.7246 9.83399 72.8051 9.67774 72.8296 9.50684C72.8955 9.0796 72.5976 8.68409 72.1704 8.62061Z" fill="#ECC86A"/>
<path d="M97.1704 8.62061L90.9716 7.71974L88.2006 2.10206C88.125 1.94825 88.0005 1.82374 87.8466 1.74806C87.4609 1.55763 86.9921 1.71632 86.7993 2.10206L84.0283 7.71974L77.8296 8.62061C77.6587 8.64503 77.5024 8.72559 77.3828 8.84766C77.2381 8.99631 77.1585 9.1963 77.1612 9.40368C77.1639 9.61105 77.2489 9.80886 77.3974 9.95362L81.8823 14.3262L80.8227 20.5005C80.7979 20.6441 80.8138 20.7918 80.8686 20.9269C80.9234 21.0619 81.015 21.1789 81.1329 21.2646C81.2509 21.3503 81.3905 21.4011 81.5358 21.4115C81.6812 21.4219 81.8266 21.3913 81.9555 21.3232L87.5 18.4082L93.0444 21.3232C93.1958 21.4038 93.3715 21.4307 93.54 21.4014C93.9648 21.3281 94.2505 20.9253 94.1772 20.5005L93.1176 14.3262L97.6025 9.95362C97.7246 9.83399 97.8051 9.67774 97.8296 9.50684C97.8955 9.0796 97.5976 8.68409 97.1704 8.62061Z" fill="#ECC86A"/>
<path d="M122.17 8.62061L115.972 7.71974L113.201 2.10206C113.125 1.94825 113 1.82374 112.847 1.74806C112.461 1.55763 111.992 1.71632 111.799 2.10206L109.028 7.71974L102.83 8.62061C102.659 8.64503 102.502 8.72559 102.383 8.84766C102.238 8.99631 102.158 9.1963 102.161 9.40368C102.164 9.61105 102.249 9.80886 102.397 9.95362L106.882 14.3262L105.823 20.5005C105.798 20.6441 105.814 20.7918 105.869 20.9269C105.923 21.0619 106.015 21.1789 106.133 21.2646C106.251 21.3503 106.39 21.4011 106.536 21.4115C106.681 21.4219 106.827 21.3913 106.956 21.3232L112.5 18.4082L118.044 21.3232C118.196 21.4038 118.372 21.4307 118.54 21.4014C118.965 21.3281 119.25 20.9253 119.177 20.5005L118.118 14.3262L122.603 9.95362C122.725 9.83399 122.805 9.67774 122.83 9.50684C122.895 9.0796 122.598 8.68409 122.17 8.62061ZM116.23 13.7109L117.112 18.8452L112.5 16.4233L107.888 18.8477L108.769 13.7134L105.039 10.0757L110.195 9.32618L112.5 4.65577L114.805 9.32618L119.961 10.0757L116.23 13.7109Z" fill="#ECC86A"/>
</svg>
