<svg width="20" height="20" viewBox="0 0 20 20" fill="none" xmlns="http://www.w3.org/2000/svg">
<path d="M9.9996 5.99424C7.7828 5.99424 5.99374 7.7833 5.99374 10.0001C5.99374 12.2169 7.7828 14.006 9.9996 14.006C12.2164 14.006 14.0055 12.2169 14.0055 10.0001C14.0055 7.7833 12.2164 5.99424 9.9996 5.99424ZM9.9996 12.6036C8.566 12.6036 7.39608 11.4337 7.39608 10.0001C7.39608 8.5665 8.566 7.39658 9.9996 7.39658C11.4332 7.39658 12.6031 8.5665 12.6031 10.0001C12.6031 11.4337 11.4332 12.6036 9.9996 12.6036ZM14.1695 4.89658C13.6519 4.89658 13.234 5.31455 13.234 5.83213C13.234 6.34971 13.6519 6.76767 14.1695 6.76767C14.6871 6.76767 15.1051 6.35166 15.1051 5.83213C15.1052 5.70923 15.0811 5.5875 15.0342 5.47393C14.9872 5.36035 14.9183 5.25716 14.8314 5.17025C14.7445 5.08335 14.6413 5.01444 14.5277 4.96748C14.4141 4.92052 14.2924 4.89643 14.1695 4.89658ZM17.8082 10.0001C17.8082 8.92197 17.8179 7.85361 17.7574 6.77744C17.6969 5.52744 17.4117 4.41806 16.4976 3.504C15.5816 2.58798 14.4742 2.30478 13.2242 2.24423C12.1461 2.18369 11.0777 2.19345 10.0015 2.19345C8.92343 2.19345 7.85507 2.18369 6.7789 2.24423C5.5289 2.30478 4.41952 2.58994 3.50546 3.504C2.58945 4.42002 2.30624 5.52744 2.2457 6.77744C2.18515 7.85557 2.19492 8.92393 2.19492 10.0001C2.19492 11.0763 2.18515 12.1466 2.2457 13.2228C2.30624 14.4728 2.5914 15.5821 3.50546 16.4962C4.42148 17.4122 5.5289 17.6954 6.7789 17.756C7.85702 17.8165 8.92538 17.8067 10.0015 17.8067C11.0797 17.8067 12.148 17.8165 13.2242 17.756C14.4742 17.6954 15.5836 17.4103 16.4976 16.4962C17.4137 15.5802 17.6969 14.4728 17.7574 13.2228C17.8199 12.1466 17.8082 11.0782 17.8082 10.0001ZM16.0894 14.6056C15.9469 14.961 15.775 15.2267 15.4996 15.5001C15.2242 15.7755 14.9605 15.9474 14.6051 16.0899C13.5777 16.4982 11.1383 16.4064 9.9996 16.4064C8.86093 16.4064 6.41952 16.4982 5.39218 16.0919C5.03671 15.9493 4.77109 15.7774 4.49765 15.5021C4.22226 15.2267 4.05038 14.963 3.90781 14.6075C3.50156 13.5782 3.59335 11.1388 3.59335 10.0001C3.59335 8.86143 3.50156 6.42002 3.90781 5.39267C4.05038 5.0372 4.22226 4.77158 4.49765 4.49814C4.77304 4.2247 5.03671 4.05088 5.39218 3.9083C6.41952 3.50205 8.86093 3.59384 9.9996 3.59384C11.1383 3.59384 13.5797 3.50205 14.607 3.9083C14.9625 4.05088 15.2281 4.22275 15.5015 4.49814C15.7769 4.77353 15.9488 5.0372 16.0914 5.39267C16.4976 6.42002 16.4058 8.86143 16.4058 10.0001C16.4058 11.1388 16.4976 13.5782 16.0894 14.6056Z" fill="#4E5156"/>
</svg>
