<svg width="20" height="20" viewBox="0 0 20 20" fill="none" xmlns="http://www.w3.org/2000/svg">
<path d="M19.3278 5.38271C19.28 5.26896 19.1996 5.17191 19.0967 5.10379C18.9938 5.03566 18.8731 4.99951 18.7497 4.9999H16.3747C16.0897 4.50265 15.6941 4.07768 15.2184 3.75789C14.7428 3.4381 14.1999 3.23208 13.6319 3.15579C13.0639 3.0795 12.4859 3.13498 11.9427 3.31793C11.3996 3.50089 10.9058 3.80641 10.4997 4.21084C10.1441 4.55753 9.86146 4.9718 9.66826 5.42929C9.47507 5.88679 9.37526 6.37829 9.37471 6.8749V7.35146C6.19503 6.52334 3.59347 3.96084 3.57003 3.92959C3.48831 3.84919 3.38605 3.79282 3.27444 3.76663C3.16283 3.74045 3.04617 3.74548 2.93722 3.78115C2.82862 3.81571 2.73136 3.87896 2.65573 3.96422C2.5801 4.04948 2.5289 4.15358 2.50753 4.26553C1.82785 8.03115 2.96066 10.5546 4.03097 12.0077C4.56781 12.7425 5.21936 13.3861 5.96065 13.914C4.76534 15.2655 2.92159 15.9687 2.90597 15.9765C2.8178 16.0092 2.73815 16.0613 2.67294 16.1291C2.60774 16.1969 2.55867 16.2785 2.52938 16.3678C2.5001 16.4572 2.49135 16.552 2.5038 16.6452C2.51625 16.7384 2.54957 16.8276 2.60128 16.9062C2.66378 16.9999 2.89816 17.3046 3.46847 17.5937C4.17941 17.9452 5.11691 18.1249 6.24972 18.1249C11.7575 18.1249 16.3669 13.8827 16.8356 8.42178L19.195 6.07021C19.2798 5.97985 19.3373 5.86732 19.3608 5.74566C19.3843 5.62399 19.3729 5.49816 19.3278 5.38271ZM15.7888 7.70303C15.6799 7.81101 15.6157 7.95608 15.6091 8.10928C15.2888 13.0233 11.1794 16.8749 6.24972 16.8749C5.42159 16.8749 4.84347 16.7655 4.43722 16.6327C5.33566 16.1483 6.58565 15.3046 7.39815 14.0937C7.44532 14.0204 7.47663 13.938 7.49009 13.8519C7.50354 13.7658 7.49884 13.6778 7.47628 13.5937C7.45354 13.5086 7.4133 13.4293 7.35815 13.3607C7.30299 13.292 7.23413 13.2357 7.15597 13.1952C7.14815 13.1874 5.9919 12.5858 4.99972 11.2187C3.87472 9.67178 3.39816 7.78896 3.58566 5.61709C4.82003 6.63271 7.1794 8.28896 9.89815 8.74209C9.98793 8.75651 10.0798 8.75141 10.1674 8.72715C10.255 8.70288 10.3364 8.66001 10.406 8.60146C10.474 8.54195 10.5286 8.46872 10.5663 8.38659C10.604 8.30446 10.6239 8.21527 10.6247 8.1249V6.8749C10.6259 6.30146 10.8241 5.74585 11.1863 5.30122C11.5484 4.85659 12.0524 4.54997 12.6137 4.43275C13.175 4.31554 13.7596 4.39487 14.2694 4.65743C14.7792 4.92 15.1832 5.34984 15.4138 5.8749C15.4636 5.98659 15.5447 6.08144 15.6473 6.14799C15.7499 6.21455 15.8696 6.24994 15.9919 6.2499H17.2419L15.7888 7.70303Z" fill="#333333"/>
</svg>
