<svg width="30" height="30" viewBox="0 0 30 30" fill="none" xmlns="http://www.w3.org/2000/svg">
<path d="M25.3125 7.96873H20.1328C20.0107 6.69206 19.4171 5.50672 18.4681 4.64412C17.519 3.78151 16.2825 3.30356 15 3.30356C13.7175 3.30356 12.481 3.78151 11.5319 4.64412C10.5829 5.50672 9.98933 6.69206 9.86719 7.96873H4.6875C4.31454 7.96873 3.95685 8.11689 3.69313 8.38061C3.42941 8.64434 3.28125 9.00202 3.28125 9.37498V24.375C3.28125 24.7479 3.42941 25.1056 3.69313 25.3693C3.95685 25.6331 4.31454 25.7812 4.6875 25.7812H25.3125C25.6855 25.7812 26.0431 25.6331 26.3069 25.3693C26.5706 25.1056 26.7188 24.7479 26.7188 24.375V9.37498C26.7188 9.00202 26.5706 8.64434 26.3069 8.38061C26.0431 8.11689 25.6855 7.96873 25.3125 7.96873ZM15 4.21874C16.0375 4.22065 17.038 4.60371 17.8115 5.2951C18.585 5.98648 19.0775 6.93799 19.1953 7.96873H10.8047C10.9225 6.93799 11.415 5.98648 12.1885 5.2951C12.962 4.60371 13.9625 4.22065 15 4.21874V4.21874ZM25.7812 24.375C25.7812 24.4993 25.7319 24.6185 25.644 24.7064C25.556 24.7943 25.4368 24.8437 25.3125 24.8437H4.6875C4.56318 24.8437 4.44395 24.7943 4.35604 24.7064C4.26814 24.6185 4.21875 24.4993 4.21875 24.375V9.37498C4.21875 9.25066 4.26814 9.13143 4.35604 9.04353C4.44395 8.95562 4.56318 8.90623 4.6875 8.90623H9.84375V12.1875C9.84375 12.3118 9.89314 12.431 9.98104 12.5189C10.069 12.6068 10.1882 12.6562 10.3125 12.6562C10.4368 12.6562 10.556 12.6068 10.644 12.5189C10.7319 12.431 10.7812 12.3118 10.7812 12.1875V8.90623H19.2188V12.1875C19.2188 12.3118 19.2681 12.431 19.356 12.5189C19.444 12.6068 19.5632 12.6562 19.6875 12.6562C19.8118 12.6562 19.931 12.6068 20.019 12.5189C20.1069 12.431 20.1562 12.3118 20.1562 12.1875V8.90623H25.3125C25.4368 8.90623 25.556 8.95562 25.644 9.04353C25.7319 9.13143 25.7812 9.25066 25.7812 9.37498V24.375Z" fill="#4E5156"/>
</svg>
