<svg width="30" height="30" viewBox="0 0 30 30" fill="none" xmlns="http://www.w3.org/2000/svg">
<path d="M5.30541 15.315C4.76997 14.7794 4.35523 14.1355 4.089 13.4266C3.82276 12.7176 3.71119 11.9599 3.76176 11.2042C3.81233 10.4486 4.02387 9.71252 4.3822 9.04534C4.74053 8.37815 5.23737 7.79529 5.8394 7.33584C6.44142 6.87638 7.13473 6.55096 7.87282 6.38138C8.61091 6.2118 9.37673 6.20198 10.1189 6.3526C10.8611 6.50321 11.5625 6.81077 12.1761 7.25464C12.7897 7.69852 13.3013 8.26846 13.6767 8.92624H15.0742C15.4495 8.26846 15.9611 7.69852 16.5747 7.25464C17.1883 6.81077 17.8897 6.50321 18.6319 6.3526C19.3741 6.20198 20.1399 6.2118 20.878 6.38138C21.6161 6.55096 22.3094 6.87638 22.9114 7.33584C23.5134 7.79529 24.0103 8.37815 24.3686 9.04534C24.7269 9.71252 24.9385 10.4486 24.989 11.2042C25.0396 11.9599 24.928 12.7176 24.6618 13.4266C24.3956 14.1355 23.9808 14.7794 23.4454 15.315L14.3754 24.3875L5.30541 15.3162V15.315ZM24.3279 16.2025C24.9681 15.5623 25.4688 14.7965 25.7987 13.9534C26.1286 13.1102 26.2805 12.2079 26.2447 11.3033C26.209 10.3986 25.9864 9.51112 25.5911 8.69662C25.1957 7.88213 24.6361 7.15825 23.9475 6.57052C23.2588 5.98278 22.4559 5.5439 21.5894 5.28149C20.7229 5.01907 19.8115 4.93879 18.9124 5.0457C18.0134 5.1526 17.1462 5.44438 16.3654 5.90269C15.5846 6.36099 14.907 6.9759 14.3754 7.70874C13.8438 6.9759 13.1662 6.36099 12.3854 5.90269C11.6046 5.44438 10.7374 5.1526 9.83837 5.0457C8.93933 4.93879 8.02789 5.01907 7.16138 5.28149C6.29487 5.5439 5.49203 5.98278 4.80335 6.57052C4.11468 7.15825 3.55507 7.88213 3.15972 8.69662C2.76436 9.51112 2.54182 10.3986 2.50609 11.3033C2.47036 12.2079 2.6222 13.1102 2.95208 13.9534C3.28196 14.7965 3.78274 15.5623 4.42291 16.2025L14.3754 26.1537L24.3279 16.2037V16.2025Z" fill="#4E5156"/>
</svg>
