<svg width="15" height="15" viewBox="0 0 15 15" fill="none" xmlns="http://www.w3.org/2000/svg">
<path d="M5.91709 0.333344C6.95338 0.333321 7.96793 0.630568 8.84037 1.18982C9.71281 1.74906 10.4065 2.54684 10.8392 3.48849C11.2718 4.43014 11.4253 5.47614 11.2814 6.50239C11.1374 7.52864 10.7021 8.49206 10.0271 9.27835L14.7304 13.9817L14.1413 14.5709L9.43709 9.86668C8.77365 10.434 7.98291 10.8326 7.13223 11.0285C6.28155 11.2244 5.39612 11.2118 4.55136 10.9918C3.7066 10.7718 2.92753 10.3508 2.28051 9.76482C1.63349 9.17881 1.13768 8.44512 0.835312 7.62621C0.532946 6.8073 0.43298 5.92744 0.543928 5.06157C0.654876 4.19571 0.973452 3.36948 1.47252 2.65326C1.97159 1.93705 2.63637 1.35206 3.41024 0.948127C4.18411 0.544192 5.04414 0.333276 5.91709 0.333344V0.333344ZM5.91709 1.16668C4.70151 1.16668 3.53572 1.64956 2.67618 2.50911C1.81664 3.36865 1.33375 4.53444 1.33375 5.75001C1.33375 6.96559 1.81664 8.13138 2.67618 8.99092C3.53572 9.85046 4.70151 10.3333 5.91709 10.3333C7.13266 10.3333 8.29845 9.85046 9.15799 8.99092C10.0175 8.13138 10.5004 6.96559 10.5004 5.75001C10.5004 4.53444 10.0175 3.36865 9.15799 2.50911C8.29845 1.64956 7.13266 1.16668 5.91709 1.16668Z" fill="#4E5156"/>
</svg>
